<svg width="560" height="560" viewBox="0 0 560 560" fill="none" xmlns="http://www.w3.org/2000/svg">
<circle cx="280.5" cy="271.5" r="185.5" stroke="white" stroke-width="25"/>
<path d="M152.42 390.541C135.682 367.148 125.722 339.592 123.637 310.904C121.551 282.216 127.42 253.508 140.597 227.941C153.775 202.373 173.751 180.936 198.326 165.99C222.902 151.043 251.125 143.166 279.888 143.225C308.652 143.285 336.842 151.278 361.356 166.325C385.869 181.373 405.757 202.892 418.829 228.513C431.902 254.135 437.652 282.866 435.448 311.545C433.245 340.225 423.172 367.74 406.338 391.063L370.1 364.908C382.121 348.252 389.315 328.602 390.889 308.121C392.463 287.64 388.356 267.122 379.02 248.824C369.684 230.527 355.482 215.159 337.976 204.413C320.469 193.667 300.338 187.959 279.796 187.916C259.255 187.874 239.1 193.5 221.549 204.174C203.999 214.848 189.733 230.156 180.323 248.415C170.912 266.674 166.721 287.175 168.21 307.663C169.7 328.15 176.812 347.83 188.765 364.535L152.42 390.541Z" stroke="white" stroke-width="25"/>
<g style="mix-blend-mode:hard-light">
<rect width="560" height="139" transform="translate(0 230)" fill="#EC465D" fill-opacity="0.5"/>
<mask id="path-3-outside-1_71_390" maskUnits="userSpaceOnUse" x="58" y="258" width="456" height="92" fill="black">
<rect fill="white" x="58" y="258" width="456" height="92"/>
<path d="M111.808 341.672C96.512 343.656 84.608 343.016 76.096 339.752C67.648 336.488 63.424 330.472 63.424 321.704C63.424 316.456 64.832 311.912 67.648 308.072C70.528 304.232 74.624 300.904 79.936 298.088C79.68 296.936 79.264 295.112 78.688 292.616C78.112 290.12 77.472 287.4 76.768 284.456C76.064 281.512 75.36 278.664 74.656 275.912C73.952 273.16 73.344 270.952 72.832 269.288C72.576 268.52 72.64 267.784 73.024 267.08C73.472 266.312 74.112 265.8 74.944 265.544C75.712 265.288 76.448 265.384 77.152 265.832C77.92 266.216 78.432 266.792 78.688 267.56C79.968 271.656 81.184 276.2 82.336 281.192C83.552 286.184 84.544 290.952 85.312 295.496C88.576 294.088 92.16 292.776 96.064 291.56C100.032 290.344 104.256 289.224 108.736 288.2C109.568 288.008 110.336 288.136 111.04 288.584C111.744 289.032 112.192 289.672 112.384 290.504C112.576 291.336 112.448 292.136 112 292.904C111.552 293.608 110.912 294.024 110.08 294.152C99.776 296.392 91.648 298.888 85.696 301.64C79.808 304.328 75.616 307.336 73.12 310.664C70.688 313.992 69.472 317.704 69.472 321.8C69.472 328.264 73.024 332.648 80.128 334.952C87.232 337.192 97.536 337.416 111.04 335.624C111.936 335.496 112.704 335.688 113.344 336.2C114.048 336.712 114.432 337.384 114.496 338.216C114.624 339.048 114.432 339.816 113.92 340.52C113.408 341.16 112.704 341.544 111.808 341.672ZM175.936 341.96C175.104 341.96 174.368 341.672 173.728 341.096C173.152 340.52 172.864 339.816 172.864 338.984C172.864 338.088 173.152 337.352 173.728 336.776C174.304 336.2 175.008 335.88 175.84 335.816C185.184 335.688 192.512 334.216 197.824 331.4C203.136 328.52 205.792 323.848 205.792 317.384C205.792 313.224 204.384 310.056 201.568 307.88C198.816 305.64 195.36 304.52 191.2 304.52C187.04 304.52 182.56 305.544 177.76 307.592C173.024 309.576 168.352 312.904 163.744 317.576C163.296 318.024 162.72 318.312 162.016 318.44C161.376 318.504 160.768 318.408 160.192 318.152C158.976 317.512 158.464 316.488 158.656 315.08C159.296 310.92 160.032 306.44 160.864 301.64C161.76 296.84 162.72 292.168 163.744 287.624C163.936 286.792 164.384 286.184 165.088 285.8C165.856 285.352 166.656 285.224 167.488 285.416C168.32 285.608 168.928 286.056 169.312 286.76C169.76 287.464 169.888 288.232 169.696 289.064C169.056 291.624 168.32 294.632 167.488 298.088C166.72 301.48 165.984 305.16 165.28 309.128C169.76 305.416 174.208 302.76 178.624 301.16C183.04 299.496 187.232 298.696 191.2 298.76C195.424 298.76 199.072 299.56 202.144 301.16C205.216 302.696 207.584 304.872 209.248 307.688C210.976 310.44 211.84 313.672 211.84 317.384C211.84 324.936 208.896 330.856 203.008 335.144C197.12 339.368 188.096 341.64 175.936 341.96ZM192.736 281.576C191.328 280.936 189.632 280.2 187.648 279.368C185.728 278.472 183.712 277.576 181.6 276.68C179.488 275.72 177.504 274.856 175.648 274.088C173.792 273.256 172.224 272.552 170.944 271.976C170.176 271.656 169.632 271.112 169.312 270.344C169.056 269.512 169.12 268.712 169.504 267.944C169.824 267.176 170.368 266.664 171.136 266.408C171.968 266.152 172.768 266.184 173.536 266.504C175.328 267.272 177.536 268.264 180.16 269.48C182.784 270.632 185.44 271.816 188.128 273.032C190.816 274.184 193.12 275.176 195.04 276.008C195.808 276.328 196.352 276.872 196.672 277.64C196.992 278.408 196.992 279.176 196.672 279.944C196.352 280.776 195.808 281.352 195.04 281.672C194.272 281.992 193.504 281.96 192.736 281.576ZM315.616 328.328C312.288 325.896 308.672 323.144 304.768 320.072C300.928 317 297.056 313.8 293.152 310.472C289.312 307.08 285.664 303.816 282.208 300.68C279.52 298.12 277.152 296.424 275.104 295.592C273.056 294.696 270.976 294.632 268.864 295.4C266.752 296.104 264.192 297.608 261.184 299.912C258.048 302.28 255.008 304.552 252.064 306.728C249.12 308.904 246.304 310.824 243.616 312.488C242.912 312.936 242.144 313.096 241.312 312.968C240.48 312.776 239.808 312.296 239.296 311.528C238.848 310.824 238.72 310.056 238.912 309.224C239.104 308.328 239.552 307.656 240.256 307.208C242.816 305.608 245.6 303.784 248.608 301.736C251.616 299.688 254.592 297.544 257.536 295.304C261.376 292.36 264.8 290.44 267.808 289.544C270.816 288.584 273.76 288.68 276.64 289.832C279.584 290.92 282.816 293.096 286.336 296.36C289.728 299.432 293.376 302.632 297.28 305.96C301.184 309.224 305.056 312.36 308.896 315.368C312.736 318.312 316.192 320.904 319.264 323.144C319.968 323.656 320.384 324.36 320.512 325.256C320.704 326.088 320.544 326.856 320.032 327.56C319.52 328.264 318.816 328.712 317.92 328.904C317.088 329.032 316.32 328.84 315.616 328.328ZM310.048 286.568C309.472 285.928 308.64 285.128 307.552 284.168C306.464 283.208 305.344 282.248 304.192 281.288C303.104 280.328 302.176 279.592 301.408 279.08C300.96 278.76 300.672 278.28 300.544 277.64C300.48 276.936 300.64 276.328 301.024 275.816C301.408 275.304 301.92 275.016 302.56 274.952C303.2 274.824 303.776 274.92 304.288 275.24C305.12 275.752 306.112 276.488 307.264 277.448C308.48 278.408 309.664 279.4 310.816 280.424C312.032 281.448 312.96 282.312 313.6 283.016C314.112 283.464 314.368 284.04 314.368 284.744C314.368 285.384 314.112 285.96 313.6 286.472C313.152 286.92 312.576 287.176 311.872 287.24C311.168 287.24 310.56 287.016 310.048 286.568ZM305.824 294.728C305.312 295.176 304.704 295.4 304 295.4C303.36 295.336 302.784 295.048 302.272 294.536C301.76 293.832 300.992 292.968 299.968 291.944C299.008 290.92 297.984 289.896 296.896 288.872C295.808 287.848 294.912 287.048 294.208 286.472C293.76 286.088 293.504 285.576 293.44 284.936C293.44 284.232 293.664 283.656 294.112 283.208C294.496 282.696 295.008 282.408 295.648 282.344C296.288 282.28 296.864 282.44 297.376 282.824C298.144 283.4 299.104 284.232 300.256 285.32C301.408 286.344 302.528 287.4 303.616 288.488C304.704 289.576 305.536 290.504 306.112 291.272C306.56 291.784 306.752 292.392 306.688 293.096C306.624 293.736 306.336 294.28 305.824 294.728ZM374.272 343.88C373.632 343.304 373.28 342.568 373.216 341.672C373.216 340.84 373.536 340.136 374.176 339.56C377.568 336.168 380.48 332.136 382.912 327.464C385.344 322.728 387.232 317.544 388.576 311.912C389.92 306.216 390.592 300.296 390.592 294.152C390.592 288.264 389.6 283.912 387.616 281.096C385.632 278.28 382.688 276.872 378.784 276.872C376.48 276.872 374.272 277.704 372.16 279.368C370.112 280.968 368.288 283.208 366.688 286.088C365.152 288.968 364.032 292.296 363.328 296.072C362.688 299.784 362.592 303.784 363.04 308.072C363.168 308.84 362.944 309.544 362.368 310.184C361.856 310.76 361.216 311.08 360.448 311.144C359.68 311.208 358.976 311.016 358.336 310.568C357.76 310.12 357.408 309.48 357.28 308.648C356.896 305.448 356.64 301.896 356.512 297.992C356.384 294.088 356.352 290.184 356.416 286.28C356.544 282.312 356.736 278.6 356.992 275.144C357.248 271.624 357.504 268.68 357.76 266.312C357.888 265.48 358.24 264.808 358.816 264.296C359.456 263.784 360.192 263.592 361.024 263.72C361.856 263.784 362.528 264.136 363.04 264.776C363.552 265.416 363.744 266.152 363.616 266.984C363.36 269.224 363.072 272.04 362.752 275.432C362.496 278.76 362.304 282.184 362.176 285.704C363.904 281.16 366.24 277.544 369.184 274.856C372.192 272.168 375.456 270.824 378.976 270.824C384.672 270.824 389.056 272.808 392.128 276.776C395.2 280.744 396.736 286.536 396.736 294.152C396.736 300.616 396.032 306.888 394.624 312.968C393.216 319.048 391.168 324.712 388.48 329.96C385.792 335.208 382.528 339.816 378.688 343.784C378.112 344.424 377.376 344.744 376.48 344.744C375.648 344.808 374.912 344.52 374.272 343.88ZM438.016 340.616C437.248 340.296 436.704 339.752 436.384 338.984C436.128 338.152 436.16 337.352 436.48 336.584C437.568 334.28 438.944 331.336 440.608 327.752C442.272 324.168 444.128 320.2 446.176 315.848C448.288 311.496 450.432 307.048 452.608 302.504C454.848 297.96 456.992 293.576 459.04 289.352C461.152 285.064 463.072 281.224 464.8 277.832C466.528 274.376 467.936 271.624 469.024 269.576C469.408 268.808 470.016 268.328 470.848 268.136C471.68 267.88 472.448 267.976 473.152 268.424C473.856 268.872 474.304 269.512 474.496 270.344C474.752 271.112 474.688 271.848 474.304 272.552C473.216 274.472 471.744 277.256 469.888 280.904C468.032 284.488 465.984 288.52 463.744 293C461.504 297.48 459.232 302.088 456.928 306.824C458.912 305.288 460.96 304.104 463.072 303.272C465.184 302.376 467.232 301.928 469.216 301.928C474.592 301.928 478.24 303.56 480.16 306.824C482.08 310.024 482.208 314.6 480.544 320.552C479.264 325.16 479.232 328.456 480.448 330.44C481.664 332.36 483.936 333.32 487.264 333.32C490.464 333.32 493.312 332.168 495.808 329.864C498.304 327.496 500.672 323.304 502.912 317.288C503.232 316.52 503.776 315.976 504.544 315.656C505.312 315.272 506.08 315.24 506.848 315.56C507.616 315.816 508.16 316.328 508.48 317.096C508.864 317.864 508.896 318.664 508.576 319.496C506.016 326.28 503.04 331.304 499.648 334.568C496.256 337.768 492.128 339.368 487.264 339.368C483.744 339.368 480.8 338.632 478.432 337.16C476.128 335.624 474.592 333.352 473.824 330.344C473.12 327.336 473.408 323.528 474.688 318.92C475.776 315.08 475.904 312.232 475.072 310.376C474.24 308.52 472.224 307.592 469.024 307.592C465.376 307.592 461.792 308.84 458.272 311.336C454.752 313.832 451.68 317.832 449.056 323.336C447.712 326.28 446.4 329.16 445.12 331.976C443.904 334.792 442.88 337.16 442.048 339.08C441.728 339.848 441.152 340.392 440.32 340.712C439.552 340.968 438.784 340.936 438.016 340.616Z"/>
</mask>
<path d="M111.808 341.672C96.512 343.656 84.608 343.016 76.096 339.752C67.648 336.488 63.424 330.472 63.424 321.704C63.424 316.456 64.832 311.912 67.648 308.072C70.528 304.232 74.624 300.904 79.936 298.088C79.68 296.936 79.264 295.112 78.688 292.616C78.112 290.12 77.472 287.4 76.768 284.456C76.064 281.512 75.36 278.664 74.656 275.912C73.952 273.16 73.344 270.952 72.832 269.288C72.576 268.52 72.64 267.784 73.024 267.08C73.472 266.312 74.112 265.8 74.944 265.544C75.712 265.288 76.448 265.384 77.152 265.832C77.92 266.216 78.432 266.792 78.688 267.56C79.968 271.656 81.184 276.2 82.336 281.192C83.552 286.184 84.544 290.952 85.312 295.496C88.576 294.088 92.16 292.776 96.064 291.56C100.032 290.344 104.256 289.224 108.736 288.2C109.568 288.008 110.336 288.136 111.04 288.584C111.744 289.032 112.192 289.672 112.384 290.504C112.576 291.336 112.448 292.136 112 292.904C111.552 293.608 110.912 294.024 110.08 294.152C99.776 296.392 91.648 298.888 85.696 301.64C79.808 304.328 75.616 307.336 73.12 310.664C70.688 313.992 69.472 317.704 69.472 321.8C69.472 328.264 73.024 332.648 80.128 334.952C87.232 337.192 97.536 337.416 111.04 335.624C111.936 335.496 112.704 335.688 113.344 336.2C114.048 336.712 114.432 337.384 114.496 338.216C114.624 339.048 114.432 339.816 113.92 340.52C113.408 341.16 112.704 341.544 111.808 341.672ZM175.936 341.96C175.104 341.96 174.368 341.672 173.728 341.096C173.152 340.52 172.864 339.816 172.864 338.984C172.864 338.088 173.152 337.352 173.728 336.776C174.304 336.2 175.008 335.88 175.84 335.816C185.184 335.688 192.512 334.216 197.824 331.4C203.136 328.52 205.792 323.848 205.792 317.384C205.792 313.224 204.384 310.056 201.568 307.88C198.816 305.64 195.36 304.52 191.2 304.52C187.04 304.52 182.56 305.544 177.76 307.592C173.024 309.576 168.352 312.904 163.744 317.576C163.296 318.024 162.72 318.312 162.016 318.44C161.376 318.504 160.768 318.408 160.192 318.152C158.976 317.512 158.464 316.488 158.656 315.08C159.296 310.92 160.032 306.44 160.864 301.64C161.76 296.84 162.72 292.168 163.744 287.624C163.936 286.792 164.384 286.184 165.088 285.8C165.856 285.352 166.656 285.224 167.488 285.416C168.32 285.608 168.928 286.056 169.312 286.76C169.76 287.464 169.888 288.232 169.696 289.064C169.056 291.624 168.32 294.632 167.488 298.088C166.72 301.48 165.984 305.16 165.28 309.128C169.76 305.416 174.208 302.76 178.624 301.16C183.04 299.496 187.232 298.696 191.2 298.76C195.424 298.76 199.072 299.56 202.144 301.16C205.216 302.696 207.584 304.872 209.248 307.688C210.976 310.44 211.84 313.672 211.84 317.384C211.84 324.936 208.896 330.856 203.008 335.144C197.12 339.368 188.096 341.64 175.936 341.96ZM192.736 281.576C191.328 280.936 189.632 280.2 187.648 279.368C185.728 278.472 183.712 277.576 181.6 276.68C179.488 275.72 177.504 274.856 175.648 274.088C173.792 273.256 172.224 272.552 170.944 271.976C170.176 271.656 169.632 271.112 169.312 270.344C169.056 269.512 169.12 268.712 169.504 267.944C169.824 267.176 170.368 266.664 171.136 266.408C171.968 266.152 172.768 266.184 173.536 266.504C175.328 267.272 177.536 268.264 180.16 269.48C182.784 270.632 185.44 271.816 188.128 273.032C190.816 274.184 193.12 275.176 195.04 276.008C195.808 276.328 196.352 276.872 196.672 277.64C196.992 278.408 196.992 279.176 196.672 279.944C196.352 280.776 195.808 281.352 195.04 281.672C194.272 281.992 193.504 281.96 192.736 281.576ZM315.616 328.328C312.288 325.896 308.672 323.144 304.768 320.072C300.928 317 297.056 313.8 293.152 310.472C289.312 307.08 285.664 303.816 282.208 300.68C279.52 298.12 277.152 296.424 275.104 295.592C273.056 294.696 270.976 294.632 268.864 295.4C266.752 296.104 264.192 297.608 261.184 299.912C258.048 302.28 255.008 304.552 252.064 306.728C249.12 308.904 246.304 310.824 243.616 312.488C242.912 312.936 242.144 313.096 241.312 312.968C240.48 312.776 239.808 312.296 239.296 311.528C238.848 310.824 238.72 310.056 238.912 309.224C239.104 308.328 239.552 307.656 240.256 307.208C242.816 305.608 245.6 303.784 248.608 301.736C251.616 299.688 254.592 297.544 257.536 295.304C261.376 292.36 264.8 290.44 267.808 289.544C270.816 288.584 273.76 288.68 276.64 289.832C279.584 290.92 282.816 293.096 286.336 296.36C289.728 299.432 293.376 302.632 297.28 305.96C301.184 309.224 305.056 312.36 308.896 315.368C312.736 318.312 316.192 320.904 319.264 323.144C319.968 323.656 320.384 324.36 320.512 325.256C320.704 326.088 320.544 326.856 320.032 327.56C319.52 328.264 318.816 328.712 317.92 328.904C317.088 329.032 316.32 328.84 315.616 328.328ZM310.048 286.568C309.472 285.928 308.64 285.128 307.552 284.168C306.464 283.208 305.344 282.248 304.192 281.288C303.104 280.328 302.176 279.592 301.408 279.08C300.96 278.76 300.672 278.28 300.544 277.64C300.48 276.936 300.64 276.328 301.024 275.816C301.408 275.304 301.92 275.016 302.56 274.952C303.2 274.824 303.776 274.92 304.288 275.24C305.12 275.752 306.112 276.488 307.264 277.448C308.48 278.408 309.664 279.4 310.816 280.424C312.032 281.448 312.96 282.312 313.6 283.016C314.112 283.464 314.368 284.04 314.368 284.744C314.368 285.384 314.112 285.96 313.6 286.472C313.152 286.92 312.576 287.176 311.872 287.24C311.168 287.24 310.56 287.016 310.048 286.568ZM305.824 294.728C305.312 295.176 304.704 295.4 304 295.4C303.36 295.336 302.784 295.048 302.272 294.536C301.76 293.832 300.992 292.968 299.968 291.944C299.008 290.92 297.984 289.896 296.896 288.872C295.808 287.848 294.912 287.048 294.208 286.472C293.76 286.088 293.504 285.576 293.44 284.936C293.44 284.232 293.664 283.656 294.112 283.208C294.496 282.696 295.008 282.408 295.648 282.344C296.288 282.28 296.864 282.44 297.376 282.824C298.144 283.4 299.104 284.232 300.256 285.32C301.408 286.344 302.528 287.4 303.616 288.488C304.704 289.576 305.536 290.504 306.112 291.272C306.56 291.784 306.752 292.392 306.688 293.096C306.624 293.736 306.336 294.28 305.824 294.728ZM374.272 343.88C373.632 343.304 373.28 342.568 373.216 341.672C373.216 340.84 373.536 340.136 374.176 339.56C377.568 336.168 380.48 332.136 382.912 327.464C385.344 322.728 387.232 317.544 388.576 311.912C389.92 306.216 390.592 300.296 390.592 294.152C390.592 288.264 389.6 283.912 387.616 281.096C385.632 278.28 382.688 276.872 378.784 276.872C376.48 276.872 374.272 277.704 372.16 279.368C370.112 280.968 368.288 283.208 366.688 286.088C365.152 288.968 364.032 292.296 363.328 296.072C362.688 299.784 362.592 303.784 363.04 308.072C363.168 308.84 362.944 309.544 362.368 310.184C361.856 310.76 361.216 311.08 360.448 311.144C359.68 311.208 358.976 311.016 358.336 310.568C357.76 310.12 357.408 309.48 357.28 308.648C356.896 305.448 356.64 301.896 356.512 297.992C356.384 294.088 356.352 290.184 356.416 286.28C356.544 282.312 356.736 278.6 356.992 275.144C357.248 271.624 357.504 268.68 357.76 266.312C357.888 265.48 358.24 264.808 358.816 264.296C359.456 263.784 360.192 263.592 361.024 263.72C361.856 263.784 362.528 264.136 363.04 264.776C363.552 265.416 363.744 266.152 363.616 266.984C363.36 269.224 363.072 272.04 362.752 275.432C362.496 278.76 362.304 282.184 362.176 285.704C363.904 281.16 366.24 277.544 369.184 274.856C372.192 272.168 375.456 270.824 378.976 270.824C384.672 270.824 389.056 272.808 392.128 276.776C395.2 280.744 396.736 286.536 396.736 294.152C396.736 300.616 396.032 306.888 394.624 312.968C393.216 319.048 391.168 324.712 388.48 329.96C385.792 335.208 382.528 339.816 378.688 343.784C378.112 344.424 377.376 344.744 376.48 344.744C375.648 344.808 374.912 344.52 374.272 343.88ZM438.016 340.616C437.248 340.296 436.704 339.752 436.384 338.984C436.128 338.152 436.16 337.352 436.48 336.584C437.568 334.28 438.944 331.336 440.608 327.752C442.272 324.168 444.128 320.2 446.176 315.848C448.288 311.496 450.432 307.048 452.608 302.504C454.848 297.96 456.992 293.576 459.04 289.352C461.152 285.064 463.072 281.224 464.8 277.832C466.528 274.376 467.936 271.624 469.024 269.576C469.408 268.808 470.016 268.328 470.848 268.136C471.68 267.88 472.448 267.976 473.152 268.424C473.856 268.872 474.304 269.512 474.496 270.344C474.752 271.112 474.688 271.848 474.304 272.552C473.216 274.472 471.744 277.256 469.888 280.904C468.032 284.488 465.984 288.52 463.744 293C461.504 297.48 459.232 302.088 456.928 306.824C458.912 305.288 460.96 304.104 463.072 303.272C465.184 302.376 467.232 301.928 469.216 301.928C474.592 301.928 478.24 303.56 480.16 306.824C482.08 310.024 482.208 314.6 480.544 320.552C479.264 325.16 479.232 328.456 480.448 330.44C481.664 332.36 483.936 333.32 487.264 333.32C490.464 333.32 493.312 332.168 495.808 329.864C498.304 327.496 500.672 323.304 502.912 317.288C503.232 316.52 503.776 315.976 504.544 315.656C505.312 315.272 506.08 315.24 506.848 315.56C507.616 315.816 508.16 316.328 508.48 317.096C508.864 317.864 508.896 318.664 508.576 319.496C506.016 326.28 503.04 331.304 499.648 334.568C496.256 337.768 492.128 339.368 487.264 339.368C483.744 339.368 480.8 338.632 478.432 337.16C476.128 335.624 474.592 333.352 473.824 330.344C473.12 327.336 473.408 323.528 474.688 318.92C475.776 315.08 475.904 312.232 475.072 310.376C474.24 308.52 472.224 307.592 469.024 307.592C465.376 307.592 461.792 308.84 458.272 311.336C454.752 313.832 451.68 317.832 449.056 323.336C447.712 326.28 446.4 329.16 445.12 331.976C443.904 334.792 442.88 337.16 442.048 339.08C441.728 339.848 441.152 340.392 440.32 340.712C439.552 340.968 438.784 340.936 438.016 340.616Z" fill="white"/>
<path d="M111.808 341.672L112.451 346.63L112.483 346.626L112.515 346.622L111.808 341.672ZM76.096 339.752L74.294 344.416L74.3058 344.421L76.096 339.752ZM67.648 308.072L63.648 305.072L63.6319 305.094L63.616 305.115L67.648 308.072ZM79.936 298.088L82.2779 302.506L85.6432 300.722L84.8169 297.003L79.936 298.088ZM78.688 292.616L73.816 293.74V293.74L78.688 292.616ZM74.656 275.912L79.5 274.673V274.673L74.656 275.912ZM72.832 269.288L77.6109 267.818L77.5938 267.762L77.5754 267.707L72.832 269.288ZM73.024 267.08L68.7051 264.561L68.6689 264.623L68.6345 264.686L73.024 267.08ZM74.944 265.544L76.4144 270.323L76.47 270.306L76.5251 270.287L74.944 265.544ZM77.152 265.832L74.4676 270.05L74.6852 270.189L74.9159 270.304L77.152 265.832ZM78.688 267.56L83.4604 266.069L83.4463 266.024L83.4314 265.979L78.688 267.56ZM82.336 281.192L77.464 282.316L77.4709 282.346L77.4781 282.375L82.336 281.192ZM85.312 295.496L80.3819 296.329L81.4435 302.61L87.2925 300.087L85.312 295.496ZM96.064 291.56L94.599 286.779L94.588 286.783L94.5771 286.786L96.064 291.56ZM108.736 288.2L109.85 293.074L109.86 293.072L108.736 288.2ZM111.04 288.584L108.356 292.802L108.356 292.802L111.04 288.584ZM112.384 290.504L107.512 291.628L107.512 291.628L112.384 290.504ZM112 292.904L116.218 295.588L116.27 295.507L116.319 295.423L112 292.904ZM110.08 294.152L109.32 289.21L109.168 289.233L109.018 289.266L110.08 294.152ZM85.696 301.64L87.7725 306.188L87.7834 306.183L87.7944 306.178L85.696 301.64ZM73.12 310.664L69.12 307.664L69.1014 307.689L69.083 307.714L73.12 310.664ZM80.128 334.952L78.5855 339.708L78.6049 339.714L78.6244 339.721L80.128 334.952ZM111.04 335.624L111.698 340.581L111.722 340.577L111.747 340.574L111.04 335.624ZM113.344 336.2L110.221 340.104L110.31 340.176L110.403 340.244L113.344 336.2ZM114.496 338.216L109.511 338.599L109.525 338.789L109.554 338.976L114.496 338.216ZM113.92 340.52L117.824 343.643L117.896 343.554L117.964 343.461L113.92 340.52ZM111.808 341.672L111.165 336.714C96.1926 338.656 85.2609 337.911 77.8862 335.083L76.096 339.752L74.3058 344.421C83.9551 348.121 96.8314 348.656 112.451 346.63L111.808 341.672ZM76.096 339.752L77.898 335.088C74.382 333.73 72.1071 331.946 70.6841 329.919C69.2696 327.904 68.424 325.262 68.424 321.704H63.424H58.424C58.424 326.914 59.6904 331.664 62.4999 335.665C65.3009 339.654 69.362 342.51 74.294 344.416L76.096 339.752ZM63.424 321.704H68.424C68.424 317.405 69.5573 313.923 71.68 311.029L67.648 308.072L63.616 305.115C60.1067 309.901 58.424 315.507 58.424 321.704H63.424ZM67.648 308.072L71.648 311.072C73.9894 307.95 77.4565 305.062 82.2779 302.506L79.936 298.088L77.5941 293.67C71.7915 296.746 67.0666 300.514 63.648 305.072L67.648 308.072ZM79.936 298.088L84.8169 297.003C84.5562 295.83 84.1363 293.989 83.56 291.492L78.688 292.616L73.816 293.74C74.3917 296.235 74.8038 298.042 75.0551 299.173L79.936 298.088ZM78.688 292.616L83.56 291.492C82.9805 288.981 82.3374 286.248 81.6309 283.293L76.768 284.456L71.9051 285.619C72.6066 288.552 73.2435 291.259 73.816 293.74L78.688 292.616ZM76.768 284.456L81.6309 283.293C80.9212 280.325 80.2109 277.452 79.5 274.673L74.656 275.912L69.812 277.151C70.5091 279.876 71.2068 282.699 71.9051 285.619L76.768 284.456ZM74.656 275.912L79.5 274.673C78.7868 271.885 78.1564 269.59 77.6109 267.818L72.832 269.288L68.0531 270.758C68.5316 272.314 69.1172 274.435 69.812 277.151L74.656 275.912ZM72.832 269.288L77.5754 267.707C77.6426 267.908 77.7018 268.218 77.6692 268.593C77.6365 268.97 77.5234 269.273 77.4135 269.474L73.024 267.08L68.6345 264.686C67.5787 266.621 67.3984 268.799 68.0886 270.869L72.832 269.288ZM73.024 267.08L77.3429 269.599C77.2834 269.701 77.163 269.865 76.9635 270.024C76.7624 270.185 76.5618 270.278 76.4144 270.323L74.944 265.544L73.4736 260.765C71.4141 261.399 69.7704 262.734 68.7051 264.561L73.024 267.08ZM74.944 265.544L76.5251 270.287C76.2583 270.376 75.8727 270.44 75.4253 270.382C74.9828 270.324 74.6556 270.17 74.4676 270.05L77.152 265.832L79.8364 261.614C77.9074 260.386 75.6094 260.052 73.3629 260.801L74.944 265.544ZM77.152 265.832L74.9159 270.304C74.7958 270.244 74.5872 270.113 74.375 269.874C74.1585 269.63 74.0197 269.367 73.9446 269.141L78.688 267.56L83.4314 265.979C82.7287 263.871 81.2623 262.297 79.3881 261.36L77.152 265.832ZM78.688 267.56L73.9156 269.051C75.1514 273.006 76.3353 277.425 77.464 282.316L82.336 281.192L87.208 280.068C86.0327 274.975 84.7846 270.306 83.4604 266.069L78.688 267.56ZM82.336 281.192L77.4781 282.375C78.669 287.264 79.6359 291.915 80.3819 296.329L85.312 295.496L90.2421 294.663C89.4521 289.989 88.435 285.104 87.194 280.009L82.336 281.192ZM85.312 295.496L87.2925 300.087C90.3735 298.758 93.7902 297.505 97.5509 296.334L96.064 291.56L94.5771 286.786C90.5298 288.047 86.7785 289.418 83.3315 290.905L85.312 295.496ZM96.064 291.56L97.529 296.341C101.37 295.164 105.476 294.074 109.85 293.074L108.736 288.2L107.622 283.326C103.036 284.374 98.6943 285.524 94.599 286.779L96.064 291.56ZM108.736 288.2L109.86 293.072C109.7 293.109 109.436 293.138 109.114 293.084C108.789 293.03 108.529 292.913 108.356 292.802L111.04 288.584L113.724 284.366C111.861 283.18 109.715 282.843 107.612 283.328L108.736 288.2ZM111.04 288.584L108.356 292.802C108.191 292.698 107.986 292.522 107.808 292.267C107.631 292.015 107.547 291.779 107.512 291.628L112.384 290.504L117.256 289.38C116.777 287.303 115.564 285.536 113.724 284.366L111.04 288.584ZM112.384 290.504L107.512 291.628C107.471 291.451 107.452 291.208 107.495 290.938C107.537 290.672 107.624 290.482 107.681 290.385L112 292.904L116.319 295.423C117.379 293.606 117.747 291.508 117.256 289.38L112.384 290.504ZM112 292.904L107.782 290.22C107.906 290.025 108.125 289.769 108.459 289.552C108.792 289.335 109.108 289.243 109.32 289.21L110.08 294.152L110.84 299.094C113.082 298.749 114.989 297.52 116.218 295.588L112 292.904ZM110.08 294.152L109.018 289.266C98.5443 291.543 90.0191 294.133 83.5976 297.102L85.696 301.64L87.7944 306.178C93.2769 303.643 101.008 301.241 111.142 299.038L110.08 294.152ZM85.696 301.64L83.6195 297.092C77.355 299.951 72.3212 303.396 69.12 307.664L73.12 310.664L77.12 313.664C78.9108 311.276 82.261 308.705 87.7725 306.188L85.696 301.64ZM73.12 310.664L69.083 307.714C66.0295 311.892 64.472 316.636 64.472 321.8H69.472H74.472C74.472 318.772 75.3465 316.092 77.157 313.614L73.12 310.664ZM69.472 321.8H64.472C64.472 326.002 65.6503 329.874 68.2511 333.084C70.8039 336.234 74.4053 338.352 78.5855 339.708L80.128 334.952L81.6705 330.196C78.7467 329.248 77.0201 328.022 76.0209 326.788C75.0697 325.614 74.472 324.062 74.472 321.8H69.472ZM80.128 334.952L78.6244 339.721C86.7877 342.295 97.9725 342.402 111.698 340.581L111.04 335.624L110.382 330.667C97.0995 332.43 87.6763 332.089 81.6316 330.183L80.128 334.952ZM111.04 335.624L111.747 340.574C111.646 340.588 111.402 340.604 111.075 340.523C110.737 340.438 110.442 340.281 110.221 340.104L113.344 336.2L116.467 332.296C114.631 330.827 112.437 330.374 110.333 330.674L111.04 335.624ZM113.344 336.2L110.403 340.244C110.255 340.136 110.019 339.919 109.819 339.569C109.615 339.213 109.531 338.863 109.511 338.599L114.496 338.216L119.481 337.833C119.299 335.469 118.115 333.487 116.285 332.156L113.344 336.2ZM114.496 338.216L109.554 338.976C109.524 338.777 109.522 338.505 109.597 338.203C109.672 337.906 109.793 337.694 109.876 337.579L113.92 340.52L117.964 343.461C119.222 341.731 119.774 339.64 119.438 337.456L114.496 338.216ZM113.92 340.52L110.016 337.397C110.165 337.21 110.37 337.031 110.614 336.899C110.849 336.77 111.033 336.732 111.101 336.722L111.808 341.672L112.515 346.622C114.528 346.334 116.432 345.384 117.824 343.643L113.92 340.52ZM175.936 341.96V346.96H176.002L176.068 346.958L175.936 341.96ZM173.728 341.096L170.192 344.632L170.285 344.725L170.383 344.812L173.728 341.096ZM173.728 336.776L170.192 333.24H170.192L173.728 336.776ZM175.84 335.816L175.772 330.816L175.614 330.819L175.457 330.831L175.84 335.816ZM197.824 331.4L200.166 335.818L200.187 335.807L200.207 335.796L197.824 331.4ZM201.568 307.88L198.412 311.758L198.461 311.798L198.511 311.836L201.568 307.88ZM177.76 307.592L179.692 312.204L179.707 312.197L179.722 312.191L177.76 307.592ZM163.744 317.576L167.28 321.112L167.292 321.099L167.304 321.087L163.744 317.576ZM162.016 318.44L162.514 323.415L162.713 323.395L162.91 323.359L162.016 318.44ZM160.192 318.152L157.863 322.577L158.01 322.654L158.161 322.721L160.192 318.152ZM158.656 315.08L153.714 314.32L153.708 314.362L153.702 314.404L158.656 315.08ZM160.864 301.64L155.949 300.723L155.943 300.754L155.937 300.786L160.864 301.64ZM163.744 287.624L158.872 286.5L158.869 286.512L158.866 286.525L163.744 287.624ZM165.088 285.8L167.482 290.189L167.545 290.155L167.607 290.119L165.088 285.8ZM167.488 285.416L168.612 280.544L168.612 280.544L167.488 285.416ZM169.312 286.76L164.923 289.154L165.003 289.302L165.094 289.444L169.312 286.76ZM169.696 289.064L174.547 290.277L174.558 290.233L174.568 290.188L169.696 289.064ZM167.488 298.088L162.627 296.918L162.619 296.951L162.611 296.984L167.488 298.088ZM165.28 309.128L160.357 308.255L157.976 321.673L168.47 312.978L165.28 309.128ZM178.624 301.16L180.327 305.861L180.357 305.85L180.387 305.839L178.624 301.16ZM191.2 298.76L191.119 303.759L191.16 303.76H191.2V298.76ZM202.144 301.16L199.834 305.595L199.871 305.614L199.908 305.632L202.144 301.16ZM209.248 307.688L204.943 310.232L204.978 310.29L205.014 310.347L209.248 307.688ZM203.008 335.144L205.923 339.207L205.937 339.196L205.951 339.186L203.008 335.144ZM192.736 281.576L194.972 277.104L194.889 277.062L194.805 277.024L192.736 281.576ZM187.648 279.368L185.534 283.899L185.623 283.941L185.714 283.979L187.648 279.368ZM181.6 276.68L179.531 281.232L179.589 281.258L179.647 281.283L181.6 276.68ZM175.648 274.088L173.603 278.651L173.669 278.68L173.736 278.708L175.648 274.088ZM170.944 271.976L172.996 267.416L172.932 267.388L172.867 267.361L170.944 271.976ZM169.312 270.344L164.533 271.814L164.604 272.045L164.697 272.267L169.312 270.344ZM169.504 267.944L173.976 270.18L174.053 270.026L174.119 269.867L169.504 267.944ZM171.136 266.408L169.666 261.629L169.61 261.646L169.555 261.665L171.136 266.408ZM173.536 266.504L175.506 261.908L175.482 261.898L175.459 261.889L173.536 266.504ZM180.16 269.48L178.058 274.017L178.104 274.038L178.15 274.058L180.16 269.48ZM188.128 273.032L186.067 277.588L186.113 277.608L186.158 277.628L188.128 273.032ZM195.04 276.008L193.052 280.596L193.084 280.61L193.117 280.623L195.04 276.008ZM196.672 279.944L192.057 278.021L192.03 278.085L192.005 278.149L196.672 279.944ZM195.04 281.672L193.117 277.057V277.057L195.04 281.672ZM175.936 341.96V336.96C176.11 336.96 176.339 336.993 176.582 337.088C176.822 337.182 176.986 337.301 177.073 337.38L173.728 341.096L170.383 344.812C171.906 346.183 173.822 346.96 175.936 346.96V341.96ZM173.728 341.096L177.264 337.56C177.411 337.708 177.583 337.938 177.708 338.243C177.832 338.546 177.864 338.812 177.864 338.984H172.864H167.864C167.864 341.11 168.657 343.096 170.192 344.632L173.728 341.096ZM172.864 338.984H177.864C177.864 339.077 177.848 339.297 177.736 339.582C177.621 339.876 177.448 340.127 177.264 340.312L173.728 336.776L170.192 333.24C168.581 334.852 167.864 336.908 167.864 338.984H172.864ZM173.728 336.776L177.264 340.312C177.15 340.425 176.98 340.555 176.757 340.656C176.536 340.756 176.344 340.792 176.223 340.801L175.84 335.816L175.457 330.831C173.466 330.984 171.635 331.798 170.192 333.24L173.728 336.776ZM175.84 335.816L175.908 340.816C185.648 340.682 193.87 339.155 200.166 335.818L197.824 331.4L195.482 326.982C191.154 329.277 184.72 330.694 175.772 330.816L175.84 335.816ZM197.824 331.4L200.207 335.796C203.58 333.967 206.301 331.453 208.147 328.207C209.982 324.979 210.792 321.307 210.792 317.384H205.792H200.792C200.792 319.925 200.274 321.821 199.453 323.265C198.643 324.691 197.38 325.953 195.441 327.004L197.824 331.4ZM205.792 317.384H210.792C210.792 311.97 208.882 307.213 204.625 303.924L201.568 307.88L198.511 311.836C199.886 312.899 200.792 314.478 200.792 317.384H205.792ZM201.568 307.88L204.724 304.002C200.932 300.915 196.302 299.52 191.2 299.52V304.52V309.52C194.418 309.52 196.7 310.365 198.412 311.758L201.568 307.88ZM191.2 304.52V299.52C186.217 299.52 181.066 300.746 175.798 302.993L177.76 307.592L179.722 312.191C184.054 310.342 187.863 309.52 191.2 309.52V304.52ZM177.76 307.592L175.828 302.98C170.338 305.28 165.133 309.048 160.184 314.065L163.744 317.576L167.304 321.087C171.571 316.76 175.71 313.872 179.692 312.204L177.76 307.592ZM163.744 317.576L160.208 314.04C160.371 313.878 160.555 313.748 160.74 313.656C160.92 313.566 161.059 313.532 161.122 313.521L162.016 318.44L162.91 323.359C164.481 323.074 166.022 322.37 167.28 321.112L163.744 317.576ZM162.016 318.44L161.518 313.465C161.605 313.456 161.723 313.456 161.86 313.477C161.997 313.499 162.121 313.538 162.223 313.583L160.192 318.152L158.161 322.721C159.547 323.337 161.028 323.564 162.514 323.415L162.016 318.44ZM160.192 318.152L162.521 313.727C162.649 313.795 163.069 314.069 163.368 314.668C163.66 315.252 163.617 315.705 163.61 315.756L158.656 315.08L153.702 314.404C153.503 315.863 153.62 317.532 154.424 319.14C155.235 320.763 156.519 321.869 157.863 322.577L160.192 318.152ZM158.656 315.08L163.598 315.84C164.232 311.716 164.963 307.267 165.791 302.494L160.864 301.64L155.937 300.786C155.101 305.613 154.36 310.124 153.714 314.32L158.656 315.08ZM160.864 301.64L165.779 302.557C166.664 297.815 167.612 293.204 168.622 288.723L163.744 287.624L158.866 286.525C157.828 291.132 156.856 295.865 155.949 300.723L160.864 301.64ZM163.744 287.624L168.616 288.748C168.578 288.911 168.48 289.197 168.249 289.51C168.014 289.83 167.731 290.054 167.482 290.189L165.088 285.8L162.694 281.411C160.646 282.527 159.362 284.377 158.872 286.5L163.744 287.624ZM165.088 285.8L167.607 290.119C167.51 290.176 167.32 290.263 167.054 290.305C166.784 290.348 166.541 290.329 166.364 290.288L167.488 285.416L168.612 280.544C166.484 280.053 164.386 280.421 162.569 281.481L165.088 285.8ZM167.488 285.416L166.364 290.288C166.201 290.25 165.915 290.152 165.602 289.921C165.282 289.686 165.058 289.403 164.923 289.154L169.312 286.76L173.701 284.366C172.585 282.318 170.735 281.034 168.612 280.544L167.488 285.416ZM169.312 286.76L165.094 289.444C164.983 289.271 164.866 289.011 164.812 288.686C164.758 288.364 164.787 288.1 164.824 287.94L169.696 289.064L174.568 290.188C175.053 288.085 174.716 285.939 173.53 284.076L169.312 286.76ZM169.696 289.064L164.845 287.851C164.201 290.429 163.461 293.452 162.627 296.918L167.488 298.088L172.349 299.258C173.179 295.812 173.911 292.819 174.547 290.277L169.696 289.064ZM167.488 298.088L162.611 296.984C161.824 300.463 161.073 304.221 160.357 308.255L165.28 309.128L170.203 310.001C170.896 306.099 171.616 302.497 172.365 299.192L167.488 298.088ZM165.28 309.128L168.47 312.978C172.609 309.549 176.564 307.225 180.327 305.861L178.624 301.16L176.921 296.459C171.852 298.295 166.911 301.283 162.09 305.278L165.28 309.128ZM178.624 301.16L180.387 305.839C184.323 304.356 187.887 303.707 191.119 303.759L191.2 298.76L191.281 293.761C186.577 293.685 181.757 294.636 176.861 296.481L178.624 301.16ZM191.2 298.76V303.76C194.794 303.76 197.616 304.439 199.834 305.595L202.144 301.16L204.454 296.725C200.528 294.681 196.054 293.76 191.2 293.76V298.76ZM202.144 301.16L199.908 305.632C202.164 306.76 203.794 308.287 204.943 310.232L209.248 307.688L213.553 305.144C211.374 301.457 208.268 298.632 204.38 296.688L202.144 301.16ZM209.248 307.688L205.014 310.347C206.173 312.194 206.84 314.476 206.84 317.384H211.84H216.84C216.84 312.868 215.779 308.686 213.482 305.029L209.248 307.688ZM211.84 317.384H206.84C206.84 323.407 204.605 327.795 200.065 331.102L203.008 335.144L205.951 339.186C213.187 333.917 216.84 326.465 216.84 317.384H211.84ZM203.008 335.144L200.093 331.081C195.403 334.446 187.573 336.652 175.804 336.962L175.936 341.96L176.068 346.958C188.619 346.628 198.837 344.29 205.923 339.207L203.008 335.144ZM192.736 281.576L194.805 277.024C193.339 276.358 191.595 275.601 189.582 274.757L187.648 279.368L185.714 283.979C187.669 284.799 189.317 285.514 190.667 286.128L192.736 281.576ZM187.648 279.368L189.762 274.837C187.785 273.914 185.715 272.994 183.553 272.077L181.6 276.68L179.647 281.283C181.709 282.158 183.671 283.03 185.534 283.899L187.648 279.368ZM181.6 276.68L183.669 272.128C181.513 271.148 179.476 270.261 177.56 269.468L175.648 274.088L173.736 278.708C175.532 279.451 177.463 280.292 179.531 281.232L181.6 276.68ZM175.648 274.088L177.693 269.525C175.839 268.694 174.273 267.991 172.996 267.416L170.944 271.976L168.892 276.536C170.175 277.113 171.745 277.818 173.603 278.651L175.648 274.088ZM170.944 271.976L172.867 267.361C173.036 267.431 173.269 267.566 173.496 267.792C173.722 268.019 173.857 268.252 173.927 268.421L169.312 270.344L164.697 272.267C165.524 274.252 167.036 275.764 169.021 276.591L170.944 271.976ZM169.312 270.344L174.091 268.874C174.133 269.011 174.175 269.237 174.152 269.519C174.129 269.802 174.051 270.031 173.976 270.18L169.504 267.944L165.032 265.708C164.064 267.644 163.905 269.772 164.533 271.814L169.312 270.344ZM169.504 267.944L174.119 269.867C174.04 270.059 173.875 270.346 173.579 270.625C173.28 270.906 172.963 271.07 172.717 271.151L171.136 266.408L169.555 261.665C167.372 262.392 165.747 263.961 164.889 266.021L169.504 267.944ZM171.136 266.408L172.606 271.187C172.529 271.211 172.372 271.244 172.16 271.236C171.945 271.227 171.754 271.178 171.613 271.119L173.536 266.504L175.459 261.889C173.561 261.098 171.557 261.047 169.666 261.629L171.136 266.408ZM173.536 266.504L171.566 271.1C173.298 271.842 175.459 272.812 178.058 274.017L180.16 269.48L182.262 264.943C179.613 263.716 177.358 262.702 175.506 261.908L173.536 266.504ZM180.16 269.48L178.15 274.058C180.757 275.203 183.396 276.379 186.067 277.588L188.128 273.032L190.189 268.476C187.484 267.253 184.811 266.061 182.17 264.902L180.16 269.48ZM188.128 273.032L186.158 277.628C188.842 278.778 191.14 279.767 193.052 280.596L195.04 276.008L197.028 271.42C195.1 270.585 192.79 269.59 190.098 268.436L188.128 273.032ZM195.04 276.008L193.117 280.623C192.948 280.553 192.715 280.418 192.488 280.192C192.262 279.965 192.127 279.732 192.057 279.563L196.672 277.64L201.287 275.717C200.46 273.732 198.948 272.22 196.963 271.393L195.04 276.008ZM196.672 277.64L192.057 279.563C191.984 279.389 191.912 279.121 191.912 278.792C191.912 278.463 191.984 278.195 192.057 278.021L196.672 279.944L201.287 281.867C202.12 279.868 202.12 277.716 201.287 275.717L196.672 277.64ZM196.672 279.944L192.005 278.149C192.05 278.033 192.161 277.808 192.389 277.567C192.622 277.32 192.887 277.152 193.117 277.057L195.04 281.672L196.963 286.287C199.09 285.401 200.567 283.745 201.339 281.739L196.672 279.944ZM195.04 281.672L193.117 277.057C193.351 276.959 193.692 276.875 194.096 276.892C194.496 276.909 194.799 277.017 194.972 277.104L192.736 281.576L190.5 286.048C192.52 287.058 194.805 287.186 196.963 286.287L195.04 281.672ZM315.616 328.328L312.666 332.365L312.675 332.372L315.616 328.328ZM304.768 320.072L301.645 323.976L301.66 323.989L301.676 324.001L304.768 320.072ZM293.152 310.472L289.842 314.219L289.875 314.249L289.908 314.277L293.152 310.472ZM282.208 300.68L278.76 304.301L278.803 304.342L278.848 304.383L282.208 300.68ZM275.104 295.592L273.1 300.173L273.161 300.199L273.222 300.224L275.104 295.592ZM268.864 295.4L270.445 300.143L270.509 300.122L270.573 300.099L268.864 295.4ZM261.184 299.912L264.197 303.902L264.211 303.892L264.224 303.881L261.184 299.912ZM252.064 306.728L249.092 302.707V302.707L252.064 306.728ZM243.616 312.488L240.984 308.237L240.958 308.253L240.932 308.27L243.616 312.488ZM241.312 312.968L240.188 317.84L240.368 317.882L240.552 317.91L241.312 312.968ZM239.296 311.528L235.078 314.212L235.106 314.257L235.136 314.301L239.296 311.528ZM238.912 309.224L243.784 310.348L243.793 310.31L243.801 310.272L238.912 309.224ZM240.256 307.208L237.606 302.968L237.589 302.979L237.572 302.99L240.256 307.208ZM257.536 295.304L260.564 299.283L260.571 299.278L260.578 299.272L257.536 295.304ZM267.808 289.544L269.235 294.336L269.282 294.322L269.328 294.307L267.808 289.544ZM276.64 289.832L274.783 294.474L274.845 294.499L274.907 294.522L276.64 289.832ZM286.336 296.36L282.936 300.026L282.958 300.046L282.98 300.066L286.336 296.36ZM297.28 305.96L294.036 309.765L294.055 309.781L294.073 309.796L297.28 305.96ZM308.896 315.368L305.813 319.304L305.833 319.32L305.854 319.336L308.896 315.368ZM319.264 323.144L316.318 327.184L316.323 327.188L319.264 323.144ZM320.512 325.256L315.562 325.963L315.592 326.173L315.64 326.38L320.512 325.256ZM320.032 327.56L324.076 330.501V330.501L320.032 327.56ZM317.92 328.904L318.68 333.846L318.825 333.824L318.968 333.793L317.92 328.904ZM310.048 286.568L306.332 289.913L306.531 290.134L306.755 290.331L310.048 286.568ZM307.552 284.168L304.244 287.917V287.917L307.552 284.168ZM304.192 281.288L300.884 285.037L300.937 285.084L300.991 285.129L304.192 281.288ZM301.408 279.08L298.502 283.149L298.567 283.196L298.634 283.24L301.408 279.08ZM300.544 277.64L295.565 278.093L295.589 278.359L295.641 278.621L300.544 277.64ZM302.56 274.952L303.058 279.927L303.301 279.903L303.541 279.855L302.56 274.952ZM304.288 275.24L301.638 279.48L301.653 279.489L301.668 279.498L304.288 275.24ZM307.264 277.448L304.063 281.289L304.114 281.331L304.166 281.372L307.264 277.448ZM310.816 280.424L307.494 284.161L307.544 284.205L307.595 284.249L310.816 280.424ZM313.6 283.016L309.9 286.379L310.092 286.591L310.307 286.779L313.6 283.016ZM311.872 287.24V292.24H312.099L312.325 292.219L311.872 287.24ZM305.824 294.728L309.117 298.491L309.117 298.491L305.824 294.728ZM304 295.4L303.503 300.375L303.751 300.4H304V295.4ZM302.272 294.536L298.228 297.477L298.459 297.794L298.736 298.072L302.272 294.536ZM299.968 291.944L296.32 295.364L296.375 295.423L296.432 295.48L299.968 291.944ZM296.896 288.872L300.323 285.231L300.323 285.231L296.896 288.872ZM294.208 286.472L290.954 290.268L290.998 290.306L291.042 290.342L294.208 286.472ZM293.44 284.936H288.44V285.185L288.465 285.434L293.44 284.936ZM294.112 283.208L297.648 286.744L297.899 286.492L298.112 286.208L294.112 283.208ZM295.648 282.344L296.146 287.319L296.146 287.319L295.648 282.344ZM297.376 282.824L294.376 286.824V286.824L297.376 282.824ZM300.256 285.32L296.823 288.955L296.878 289.007L296.934 289.057L300.256 285.32ZM303.616 288.488L307.152 284.952L307.152 284.952L303.616 288.488ZM306.112 291.272L302.112 294.272L302.225 294.423L302.349 294.565L306.112 291.272ZM306.688 293.096L311.663 293.594L311.665 293.571L311.667 293.549L306.688 293.096ZM315.616 328.328L318.566 324.291C315.295 321.9 311.726 319.185 307.86 316.143L304.768 320.072L301.676 324.001C305.618 327.103 309.281 329.892 312.666 332.365L315.616 328.328ZM304.768 320.072L307.891 316.168C304.094 313.129 300.262 309.963 296.396 306.667L293.152 310.472L289.908 314.277C293.85 317.637 297.762 320.871 301.645 323.976L304.768 320.072ZM293.152 310.472L296.462 306.725C292.637 303.346 289.006 300.097 285.568 296.977L282.208 300.68L278.848 304.383C282.322 307.535 285.987 310.814 289.842 314.219L293.152 310.472ZM282.208 300.68L285.656 297.059C282.78 294.32 279.879 292.135 276.986 290.96L275.104 295.592L273.222 300.224C274.425 300.713 276.26 301.92 278.76 304.301L282.208 300.68ZM275.104 295.592L277.108 291.011C273.877 289.597 270.467 289.497 267.155 290.701L268.864 295.4L270.573 300.099C271.485 299.767 272.235 299.795 273.1 300.173L275.104 295.592ZM268.864 295.4L267.283 290.657C264.402 291.617 261.328 293.503 258.144 295.943L261.184 299.912L264.224 303.881C267.056 301.713 269.102 300.591 270.445 300.143L268.864 295.4ZM261.184 299.912L258.171 295.922C255.048 298.28 252.021 300.542 249.092 302.707L252.064 306.728L255.036 310.749C257.995 308.562 261.048 306.28 264.197 303.902L261.184 299.912ZM252.064 306.728L249.092 302.707C246.241 304.814 243.539 306.655 240.984 308.237L243.616 312.488L246.248 316.739C249.069 314.993 251.999 312.994 255.036 310.749L252.064 306.728ZM243.616 312.488L240.932 308.27C241.056 308.19 241.248 308.1 241.492 308.049C241.736 307.998 241.94 308.006 242.072 308.026L241.312 312.968L240.552 317.91C242.57 318.22 244.564 317.811 246.3 316.706L243.616 312.488ZM241.312 312.968L242.436 308.096C242.639 308.143 242.873 308.24 243.09 308.395C243.302 308.547 243.416 308.693 243.456 308.754L239.296 311.528L235.136 314.301C236.292 316.037 238.007 317.337 240.188 317.84L241.312 312.968ZM239.296 311.528L243.514 308.844C243.625 309.017 243.742 309.277 243.796 309.602C243.85 309.924 243.821 310.188 243.784 310.348L238.912 309.224L234.04 308.1C233.555 310.203 233.892 312.349 235.078 314.212L239.296 311.528ZM238.912 309.224L243.801 310.272C243.783 310.357 243.722 310.568 243.552 310.821C243.377 311.084 243.156 311.289 242.94 311.426L240.256 307.208L237.572 302.99C235.621 304.231 234.465 306.112 234.023 308.176L238.912 309.224ZM240.256 307.208L242.906 311.448C245.531 309.807 248.371 307.947 251.422 305.869L248.608 301.736L245.794 297.603C242.829 299.621 240.101 301.409 237.606 302.968L240.256 307.208ZM248.608 301.736L251.422 305.869C254.504 303.771 257.551 301.575 260.564 299.283L257.536 295.304L254.508 291.325C251.633 293.513 248.728 295.605 245.794 297.603L248.608 301.736ZM257.536 295.304L260.578 299.272C264.168 296.52 267.039 294.99 269.235 294.336L267.808 289.544L266.381 284.752C262.561 285.89 258.584 288.2 254.494 291.336L257.536 295.304ZM267.808 289.544L269.328 294.307C271.252 293.693 273.002 293.762 274.783 294.474L276.64 289.832L278.497 285.19C274.518 283.598 270.38 283.475 266.288 284.781L267.808 289.544ZM276.64 289.832L274.907 294.522C276.995 295.294 279.669 296.997 282.936 300.026L286.336 296.36L289.736 292.694C285.963 289.195 282.173 286.546 278.373 285.142L276.64 289.832ZM286.336 296.36L282.98 300.066C286.413 303.175 290.099 306.408 294.036 309.765L297.28 305.96L300.524 302.155C296.653 298.856 293.043 295.689 289.692 292.654L286.336 296.36ZM297.28 305.96L294.073 309.796C298.016 313.093 301.929 316.262 305.813 319.304L308.896 315.368L311.979 311.432C308.183 308.458 304.352 305.355 300.487 302.124L297.28 305.96ZM308.896 315.368L305.854 319.336C309.718 322.298 313.206 324.915 316.318 327.184L319.264 323.144L322.21 319.104C319.178 316.893 315.754 314.326 311.938 311.4L308.896 315.368ZM319.264 323.144L316.323 327.188C316.159 327.068 315.961 326.873 315.799 326.6C315.64 326.33 315.581 326.094 315.562 325.963L320.512 325.256L325.462 324.549C325.151 322.375 324.05 320.442 322.205 319.1L319.264 323.144ZM320.512 325.256L315.64 326.38C315.588 326.155 315.561 325.821 315.641 325.436C315.721 325.054 315.874 324.777 315.988 324.619L320.032 327.56L324.076 330.501C325.42 328.652 325.909 326.406 325.384 324.132L320.512 325.256ZM320.032 327.56L315.988 324.619C316.085 324.486 316.236 324.333 316.436 324.206C316.632 324.081 316.796 324.031 316.872 324.015L317.92 328.904L318.968 333.793C320.999 333.358 322.798 332.257 324.076 330.501L320.032 327.56ZM317.92 328.904L317.16 323.962C317.359 323.932 317.631 323.93 317.933 324.005C318.23 324.08 318.442 324.201 318.557 324.284L315.616 328.328L312.675 332.372C314.405 333.63 316.496 334.182 318.68 333.846L317.92 328.904ZM310.048 286.568L313.764 283.223C313.003 282.377 312.009 281.432 310.86 280.419L307.552 284.168L304.244 287.917C305.271 288.824 305.941 289.479 306.332 289.913L310.048 286.568ZM307.552 284.168L310.86 280.419C309.736 279.427 308.58 278.436 307.393 277.447L304.192 281.288L300.991 285.129C302.108 286.06 303.192 286.989 304.244 287.917L307.552 284.168ZM304.192 281.288L307.5 277.539C306.327 276.504 305.211 275.606 304.182 274.92L301.408 279.08L298.634 283.24C299.141 283.578 299.881 284.152 300.884 285.037L304.192 281.288ZM301.408 279.08L304.314 275.011C304.658 275.257 304.941 275.569 305.143 275.908C305.339 276.233 305.417 276.509 305.447 276.659L300.544 277.64L295.641 278.621C295.969 280.26 296.833 281.956 298.502 283.149L301.408 279.08ZM300.544 277.64L305.523 277.187C305.538 277.343 305.537 277.605 305.451 277.928C305.364 278.26 305.212 278.565 305.024 278.816L301.024 275.816L297.024 272.816C295.818 274.424 295.401 276.295 295.565 278.093L300.544 277.64ZM301.024 275.816L305.024 278.816C304.837 279.065 304.549 279.348 304.147 279.574C303.747 279.799 303.359 279.897 303.058 279.927L302.56 274.952L302.062 269.977C300.038 270.179 298.252 271.178 297.024 272.816L301.024 275.816ZM302.56 274.952L303.541 279.855C303.336 279.896 303.026 279.923 302.65 279.86C302.267 279.796 301.921 279.657 301.638 279.48L304.288 275.24L306.938 271C305.252 269.947 303.359 269.693 301.579 270.049L302.56 274.952ZM304.288 275.24L301.668 279.498C302.219 279.838 303.009 280.41 304.063 281.289L307.264 277.448L310.465 273.607C309.215 272.566 308.021 271.666 306.908 270.982L304.288 275.24ZM307.264 277.448L304.166 281.372C305.306 282.272 306.415 283.202 307.494 284.161L310.816 280.424L314.138 276.687C312.913 275.598 311.654 274.544 310.362 273.524L307.264 277.448ZM310.816 280.424L307.595 284.249C308.738 285.211 309.475 285.912 309.9 286.379L313.6 283.016L317.3 279.653C316.445 278.712 315.326 277.685 314.037 276.599L310.816 280.424ZM313.6 283.016L310.307 286.779C310.061 286.563 309.797 286.241 309.607 285.815C309.419 285.392 309.368 285.01 309.368 284.744H314.368H319.368C319.368 282.655 318.532 280.688 316.893 279.253L313.6 283.016ZM314.368 284.744H309.368C309.368 284.375 309.446 283.987 309.607 283.625C309.762 283.276 309.95 283.051 310.064 282.936L313.6 286.472L317.136 290.008C318.451 288.692 319.368 286.889 319.368 284.744H314.368ZM313.6 286.472L310.064 282.936C310.272 282.729 310.526 282.553 310.801 282.431C311.07 282.311 311.292 282.272 311.419 282.261L311.872 287.24L312.325 292.219C314.05 292.063 315.764 291.379 317.136 290.008L313.6 286.472ZM311.872 287.24V282.24C312.059 282.24 312.321 282.271 312.617 282.38C312.915 282.49 313.16 282.647 313.341 282.805L310.048 286.568L306.755 290.331C308.213 291.606 310.003 292.24 311.872 292.24V287.24ZM305.824 294.728L302.531 290.965C302.712 290.807 302.957 290.65 303.255 290.54C303.551 290.431 303.813 290.4 304 290.4V295.4V300.4C305.869 300.4 307.659 299.766 309.117 298.491L305.824 294.728ZM304 295.4L304.498 290.425C304.784 290.453 305.069 290.536 305.324 290.664C305.572 290.788 305.73 290.923 305.808 291L302.272 294.536L298.736 298.072C299.956 299.291 301.57 300.182 303.503 300.375L304 295.4ZM302.272 294.536L306.316 291.595C305.583 290.587 304.608 289.513 303.504 288.408L299.968 291.944L296.432 295.48C297.376 296.423 297.937 297.077 298.228 297.477L302.272 294.536ZM299.968 291.944L303.616 288.524C302.58 287.42 301.482 286.322 300.323 285.231L296.896 288.872L293.469 292.513C294.486 293.47 295.436 294.42 296.32 295.364L299.968 291.944ZM296.896 288.872L300.323 285.231C299.197 284.171 298.206 283.283 297.374 282.602L294.208 286.472L291.042 290.342C291.618 290.813 292.419 291.525 293.469 292.513L296.896 288.872ZM294.208 286.472L297.462 282.676C297.728 282.904 297.973 283.205 298.152 283.564C298.328 283.915 298.394 284.228 298.415 284.438L293.44 284.936L288.465 285.434C288.644 287.227 289.437 288.968 290.954 290.268L294.208 286.472ZM293.44 284.936H298.44C298.44 285.118 298.41 285.424 298.268 285.788C298.122 286.163 297.901 286.49 297.648 286.744L294.112 283.208L290.576 279.672C289.082 281.166 288.44 283.067 288.44 284.936H293.44ZM294.112 283.208L298.112 286.208C297.925 286.457 297.637 286.74 297.235 286.966C296.835 287.191 296.447 287.289 296.146 287.319L295.648 282.344L295.15 277.369C293.126 277.571 291.34 278.57 290.112 280.208L294.112 283.208ZM295.648 282.344L296.146 287.319C295.896 287.344 295.575 287.332 295.222 287.234C294.868 287.135 294.583 286.979 294.376 286.824L297.376 282.824L300.376 278.824C298.856 277.684 297.03 277.181 295.15 277.369L295.648 282.344ZM297.376 282.824L294.376 286.824C294.928 287.238 295.732 287.925 296.823 288.955L300.256 285.32L303.689 281.685C302.476 280.539 301.36 279.562 300.376 278.824L297.376 282.824ZM300.256 285.32L296.934 289.057C298.013 290.016 299.062 291.005 300.08 292.024L303.616 288.488L307.152 284.952C305.994 283.795 304.803 282.672 303.578 281.583L300.256 285.32ZM303.616 288.488L300.08 292.024C301.088 293.031 301.736 293.771 302.112 294.272L306.112 291.272L310.112 288.272C309.336 287.237 308.32 286.121 307.152 284.952L303.616 288.488ZM306.112 291.272L302.349 294.565C302.149 294.336 301.95 294.016 301.824 293.618C301.7 293.224 301.687 292.88 301.709 292.643L306.688 293.096L311.667 293.549C311.85 291.542 311.262 289.565 309.875 287.979L306.112 291.272ZM306.688 293.096L301.713 292.598C301.742 292.304 301.833 291.97 302.005 291.645C302.175 291.323 302.377 291.101 302.531 290.965L305.824 294.728L309.117 298.491C310.523 297.26 311.465 295.574 311.663 293.594L306.688 293.096ZM374.272 343.88L377.808 340.344L377.715 340.251L377.617 340.164L374.272 343.88ZM373.216 341.672H368.216V341.85L368.229 342.028L373.216 341.672ZM374.176 339.56L377.521 343.276L377.619 343.189L377.712 343.096L374.176 339.56ZM382.912 327.464L387.347 329.773L387.353 329.76L387.36 329.748L382.912 327.464ZM388.576 311.912L393.439 313.073L393.442 313.06L388.576 311.912ZM387.616 281.096L391.703 278.216V278.216L387.616 281.096ZM372.16 279.368L375.238 283.308L375.246 283.302L375.254 283.295L372.16 279.368ZM366.688 286.088L362.317 283.66L362.296 283.697L362.276 283.735L366.688 286.088ZM363.328 296.072L358.413 295.156L358.406 295.189L358.401 295.222L363.328 296.072ZM363.04 308.072L358.067 308.592L358.083 308.743L358.108 308.894L363.04 308.072ZM362.368 310.184L358.652 306.839L358.641 306.851L358.631 306.862L362.368 310.184ZM360.448 311.144L360.033 306.161V306.161L360.448 311.144ZM358.336 310.568L355.266 314.515L355.366 314.592L355.469 314.664L358.336 310.568ZM357.28 308.648L352.316 309.244L352.326 309.326L352.338 309.408L357.28 308.648ZM356.416 286.28L351.419 286.119L351.417 286.158L351.417 286.198L356.416 286.28ZM356.992 275.144L361.978 275.513L361.979 275.507L356.992 275.144ZM357.76 266.312L352.818 265.552L352.801 265.663L352.789 265.775L357.76 266.312ZM358.816 264.296L355.693 260.392L355.591 260.473L355.494 260.559L358.816 264.296ZM361.024 263.72L360.264 268.662L360.451 268.691L360.641 268.705L361.024 263.72ZM363.04 264.776L359.136 267.899V267.899L363.04 264.776ZM363.616 266.984L358.674 266.224L358.659 266.32L358.648 266.416L363.616 266.984ZM362.752 275.432L357.774 274.962L357.77 275.005L357.767 275.049L362.752 275.432ZM362.176 285.704L357.179 285.522L366.849 287.481L362.176 285.704ZM369.184 274.856L365.852 271.128L365.832 271.146L365.813 271.164L369.184 274.856ZM392.128 276.776L396.082 273.715V273.715L392.128 276.776ZM394.624 312.968L389.753 311.84V311.84L394.624 312.968ZM388.48 329.96L392.93 332.239H392.93L388.48 329.96ZM378.688 343.784L375.095 340.307L375.032 340.372L374.972 340.439L378.688 343.784ZM376.48 344.744V339.744H376.288L376.097 339.759L376.48 344.744ZM374.272 343.88L377.617 340.164C377.756 340.289 377.917 340.483 378.039 340.739C378.159 340.99 378.195 341.202 378.203 341.316L373.216 341.672L368.229 342.028C368.38 344.153 369.28 346.114 370.927 347.596L374.272 343.88ZM373.216 341.672H378.216C378.216 341.915 378.165 342.243 378.008 342.589C377.852 342.931 377.654 343.157 377.521 343.276L374.176 339.56L370.831 335.844C369.179 337.33 368.216 339.367 368.216 341.672H373.216ZM374.176 339.56L377.712 343.096C381.498 339.309 384.702 334.853 387.347 329.773L382.912 327.464L378.477 325.155C376.258 329.419 373.638 333.027 370.64 336.024L374.176 339.56ZM382.912 327.464L387.36 329.748C389.99 324.626 392.01 319.061 393.439 313.073L388.576 311.912L383.713 310.751C382.454 316.027 380.698 320.83 378.464 325.18L382.912 327.464ZM388.576 311.912L393.442 313.06C394.879 306.97 395.592 300.663 395.592 294.152H390.592H385.592C385.592 299.929 384.961 305.462 383.71 310.764L388.576 311.912ZM390.592 294.152H395.592C395.592 287.887 394.571 282.286 391.703 278.216L387.616 281.096L383.529 283.976C384.629 285.538 385.592 288.641 385.592 294.152H390.592ZM387.616 281.096L391.703 278.216C388.647 273.878 384.063 271.872 378.784 271.872V276.872V281.872C381.313 281.872 382.617 282.682 383.529 283.976L387.616 281.096ZM378.784 276.872V271.872C375.176 271.872 371.906 273.203 369.066 275.441L372.16 279.368L375.254 283.295C376.638 282.205 377.784 281.872 378.784 281.872V276.872ZM372.16 279.368L369.082 275.428C366.385 277.535 364.159 280.345 362.317 283.66L366.688 286.088L371.059 288.516C372.417 286.071 373.839 284.401 375.238 283.308L372.16 279.368ZM366.688 286.088L362.276 283.735C360.462 287.137 359.194 290.964 358.413 295.156L363.328 296.072L368.243 296.988C368.87 293.628 369.842 290.799 371.1 288.441L366.688 286.088ZM363.328 296.072L358.401 295.222C357.672 299.446 357.578 303.912 358.067 308.592L363.04 308.072L368.013 307.552C367.606 303.656 367.704 300.122 368.255 296.922L363.328 296.072ZM363.04 308.072L358.108 308.894C358.049 308.54 358.062 308.104 358.203 307.66C358.34 307.232 358.542 306.961 358.652 306.839L362.368 310.184L366.084 313.529C367.556 311.894 368.379 309.692 367.972 307.25L363.04 308.072ZM362.368 310.184L358.631 306.862C358.765 306.712 358.976 306.53 359.268 306.384C359.559 306.238 359.832 306.178 360.033 306.161L360.448 311.144L360.863 316.127C362.911 315.956 364.74 315.041 366.105 313.506L362.368 310.184ZM360.448 311.144L360.033 306.161C360.198 306.148 360.417 306.158 360.66 306.224C360.901 306.29 361.085 306.389 361.203 306.472L358.336 310.568L355.469 314.664C357.051 315.772 358.914 316.289 360.863 316.127L360.448 311.144ZM358.336 310.568L361.406 306.621C361.655 306.815 361.869 307.067 362.021 307.342C362.167 307.607 362.21 307.812 362.222 307.888L357.28 308.648L352.338 309.408C352.628 311.294 353.527 313.162 355.266 314.515L358.336 310.568ZM357.28 308.648L362.244 308.052C361.881 305.022 361.634 301.617 361.509 297.828L356.512 297.992L351.515 298.156C351.646 302.175 351.911 305.874 352.316 309.244L357.28 308.648ZM356.512 297.992L361.509 297.828C361.384 294.006 361.353 290.184 361.415 286.362L356.416 286.28L351.417 286.198C351.351 290.184 351.384 294.17 351.515 298.156L356.512 297.992ZM356.416 286.28L361.413 286.441C361.539 282.533 361.728 278.891 361.978 275.513L356.992 275.144L352.006 274.775C351.744 278.309 351.549 282.091 351.419 286.119L356.416 286.28ZM356.992 275.144L361.979 275.507C362.232 272.02 362.484 269.139 362.731 266.849L357.76 266.312L352.789 265.775C352.524 268.221 352.264 271.228 352.005 274.781L356.992 275.144ZM357.76 266.312L362.702 267.072C362.691 267.142 362.655 267.301 362.549 267.504C362.44 267.712 362.294 267.894 362.138 268.033L358.816 264.296L355.494 260.559C353.966 261.917 353.106 263.683 352.818 265.552L357.76 266.312ZM358.816 264.296L361.939 268.2C361.755 268.348 361.473 268.512 361.11 268.606C360.751 268.7 360.45 268.69 360.264 268.662L361.024 263.72L361.784 258.778C359.612 258.444 357.458 258.979 355.693 260.392L358.816 264.296ZM361.024 263.72L360.641 268.705C360.448 268.69 360.155 268.63 359.832 268.461C359.507 268.291 359.277 268.076 359.136 267.899L363.04 264.776L366.944 261.653C365.55 259.909 363.592 258.903 361.408 258.735L361.024 263.72ZM363.04 264.776L359.136 267.899C358.988 267.715 358.824 267.433 358.73 267.07C358.636 266.711 358.646 266.41 358.674 266.224L363.616 266.984L368.558 267.744C368.892 265.572 368.357 263.418 366.944 261.653L363.04 264.776ZM363.616 266.984L358.648 266.416C358.387 268.701 358.096 271.552 357.774 274.962L362.752 275.432L367.73 275.902C368.048 272.528 368.333 269.747 368.584 267.552L363.616 266.984ZM362.752 275.432L357.767 275.049C357.505 278.447 357.31 281.939 357.179 285.522L362.176 285.704L367.173 285.886C367.298 282.429 367.487 279.073 367.737 275.815L362.752 275.432ZM362.176 285.704L366.849 287.481C368.359 283.511 370.303 280.605 372.555 278.548L369.184 274.856L365.813 271.164C362.177 274.483 359.449 278.809 357.503 283.927L362.176 285.704ZM369.184 274.856L372.516 278.584C374.75 276.588 376.864 275.824 378.976 275.824V270.824V265.824C374.048 265.824 369.634 267.748 365.852 271.128L369.184 274.856ZM378.976 270.824V275.824C383.363 275.824 386.186 277.268 388.174 279.837L392.128 276.776L396.082 273.715C391.926 268.348 385.981 265.824 378.976 265.824V270.824ZM392.128 276.776L388.174 279.837C390.297 282.578 391.736 287.099 391.736 294.152H396.736H401.736C401.736 285.973 400.103 278.91 396.082 273.715L392.128 276.776ZM396.736 294.152H391.736C391.736 300.25 391.072 306.143 389.753 311.84L394.624 312.968L399.495 314.096C400.992 307.633 401.736 300.982 401.736 294.152H396.736ZM394.624 312.968L389.753 311.84C388.432 317.544 386.52 322.818 384.03 327.681L388.48 329.96L392.93 332.239C395.816 326.606 398 320.552 399.495 314.096L394.624 312.968ZM388.48 329.96L384.03 327.681C381.552 332.519 378.569 336.717 375.095 340.307L378.688 343.784L382.281 347.261C386.487 342.915 390.032 337.897 392.93 332.239L388.48 329.96ZM378.688 343.784L374.972 340.439C375.127 340.267 375.375 340.064 375.71 339.919C376.041 339.775 376.322 339.744 376.48 339.744V344.744V349.744C378.728 349.744 380.837 348.87 382.404 347.129L378.688 343.784ZM376.48 344.744L376.097 339.759C376.388 339.736 376.754 339.774 377.126 339.92C377.487 340.061 377.71 340.247 377.808 340.344L374.272 343.88L370.736 347.416C372.31 348.989 374.442 349.916 376.863 349.729L376.48 344.744ZM438.016 340.616L439.939 336.001V336.001L438.016 340.616ZM436.384 338.984L431.605 340.454L431.676 340.685L431.769 340.907L436.384 338.984ZM436.48 336.584L431.959 334.449L431.909 334.554L431.865 334.661L436.48 336.584ZM440.608 327.752L436.073 325.646V325.646L440.608 327.752ZM446.176 315.848L441.678 313.665L441.665 313.692L441.652 313.719L446.176 315.848ZM452.608 302.504L448.123 300.293L448.111 300.319L448.098 300.344L452.608 302.504ZM459.04 289.352L454.555 287.143L454.548 287.157L454.541 287.171L459.04 289.352ZM464.8 277.832L469.255 280.102L469.264 280.085L469.272 280.068L464.8 277.832ZM469.024 269.576L473.44 271.922L473.469 271.867L473.496 271.812L469.024 269.576ZM470.848 268.136L471.972 273.008L472.147 272.968L472.318 272.915L470.848 268.136ZM473.152 268.424L475.836 264.206L475.836 264.206L473.152 268.424ZM474.496 270.344L469.624 271.468L469.677 271.7L469.753 271.925L474.496 270.344ZM474.304 272.552L478.654 275.017L478.674 274.982L478.693 274.946L474.304 272.552ZM469.888 280.904L474.328 283.203L474.336 283.187L474.344 283.171L469.888 280.904ZM463.744 293L468.216 295.236V295.236L463.744 293ZM456.928 306.824L452.432 304.637L459.989 310.778L456.928 306.824ZM463.072 303.272L464.905 307.924L464.965 307.9L465.025 307.875L463.072 303.272ZM480.16 306.824L475.85 309.359L475.861 309.378L475.873 309.396L480.16 306.824ZM480.544 320.552L475.729 319.206L475.726 319.214L480.544 320.552ZM480.448 330.44L476.185 333.053L476.204 333.084L476.224 333.115L480.448 330.44ZM495.808 329.864L499.199 333.538L499.225 333.515L499.249 333.491L495.808 329.864ZM502.912 317.288L498.297 315.365L498.26 315.453L498.226 315.543L502.912 317.288ZM504.544 315.656L506.467 320.271L506.626 320.205L506.78 320.128L504.544 315.656ZM506.848 315.56L504.925 320.175L505.094 320.246L505.267 320.303L506.848 315.56ZM508.48 317.096L503.865 319.019L503.931 319.178L504.008 319.332L508.48 317.096ZM508.576 319.496L503.909 317.701L503.904 317.716L503.898 317.731L508.576 319.496ZM499.648 334.568L503.079 338.205L503.097 338.188L503.115 338.171L499.648 334.568ZM478.432 337.16L475.659 341.32L475.725 341.364L475.792 341.406L478.432 337.16ZM473.824 330.344L468.956 331.483L468.967 331.532L468.979 331.581L473.824 330.344ZM474.688 318.92L469.877 317.557L469.874 317.569L469.87 317.582L474.688 318.92ZM475.072 310.376L470.509 312.421V312.421L475.072 310.376ZM449.056 323.336L444.543 321.184L444.525 321.222L444.508 321.26L449.056 323.336ZM445.12 331.976L440.568 329.907L440.549 329.95L440.53 329.994L445.12 331.976ZM442.048 339.08L437.46 337.092L437.446 337.124L437.433 337.157L442.048 339.08ZM440.32 340.712L441.901 345.455L442.009 345.42L442.115 345.379L440.32 340.712ZM438.016 340.616L439.939 336.001C440.108 336.071 440.341 336.206 440.568 336.432C440.794 336.659 440.929 336.892 440.999 337.061L436.384 338.984L431.769 340.907C432.596 342.892 434.108 344.404 436.093 345.231L438.016 340.616ZM436.384 338.984L441.163 337.514C441.187 337.591 441.22 337.748 441.212 337.96C441.203 338.175 441.154 338.366 441.095 338.507L436.48 336.584L431.865 334.661C431.074 336.559 431.023 338.563 431.605 340.454L436.384 338.984ZM436.48 336.584L441.001 338.719C442.096 336.401 443.477 333.447 445.143 329.858L440.608 327.752L436.073 325.646C434.411 329.225 433.04 332.159 431.959 334.449L436.48 336.584ZM440.608 327.752L445.143 329.858C446.803 326.283 448.655 322.323 450.7 317.977L446.176 315.848L441.652 313.719C439.601 318.077 437.741 322.053 436.073 325.646L440.608 327.752ZM446.176 315.848L450.674 318.031C452.79 313.671 454.938 309.215 457.118 304.664L452.608 302.504L448.098 300.344C445.926 304.881 443.786 309.321 441.678 313.665L446.176 315.848ZM452.608 302.504L457.093 304.715C459.337 300.162 461.486 295.768 463.539 291.533L459.04 289.352L454.541 287.171C452.498 291.384 450.359 295.758 448.123 300.293L452.608 302.504ZM459.04 289.352L463.525 291.561C465.63 287.289 467.54 283.469 469.255 280.102L464.8 277.832L460.345 275.562C458.604 278.979 456.674 282.839 454.555 287.143L459.04 289.352ZM464.8 277.832L469.272 280.068C470.992 276.628 472.379 273.918 473.44 271.922L469.024 269.576L464.608 267.23C463.493 269.33 462.064 272.124 460.328 275.596L464.8 277.832ZM469.024 269.576L473.496 271.812C473.396 272.013 473.199 272.302 472.866 272.564C472.533 272.827 472.202 272.955 471.972 273.008L470.848 268.136L469.724 263.264C467.429 263.794 465.599 265.247 464.552 267.34L469.024 269.576ZM470.848 268.136L472.318 272.915C472.143 272.969 471.828 273.027 471.428 272.977C471.021 272.927 470.691 272.784 470.468 272.642L473.152 268.424L475.836 264.206C473.837 262.933 471.541 262.692 469.378 263.357L470.848 268.136ZM473.152 268.424L470.468 272.642C470.303 272.538 470.098 272.362 469.92 272.107C469.743 271.855 469.659 271.619 469.624 271.468L474.496 270.344L479.368 269.22C478.889 267.143 477.676 265.376 475.836 264.206L473.152 268.424ZM474.496 270.344L469.753 271.925C469.685 271.724 469.626 271.414 469.659 271.039C469.692 270.662 469.805 270.359 469.915 270.158L474.304 272.552L478.693 274.946C479.749 273.011 479.93 270.833 479.239 268.763L474.496 270.344ZM474.304 272.552L469.954 270.087C468.81 272.105 467.298 274.968 465.432 278.637L469.888 280.904L474.344 283.171C476.19 279.544 477.622 276.839 478.654 275.017L474.304 272.552ZM469.888 280.904L465.448 278.605C463.579 282.214 461.52 286.268 459.272 290.764L463.744 293L468.216 295.236C470.448 290.772 472.485 286.762 474.328 283.203L469.888 280.904ZM463.744 293L459.272 290.764C457.023 295.261 454.743 299.885 452.432 304.637L456.928 306.824L461.424 309.011C463.721 304.291 465.985 299.699 468.216 295.236L463.744 293ZM456.928 306.824L459.989 310.778C461.638 309.501 463.277 308.565 464.905 307.924L463.072 303.272L461.239 298.62C458.643 299.643 456.186 301.075 453.867 302.87L456.928 306.824ZM463.072 303.272L465.025 307.875C466.615 307.2 468 306.928 469.216 306.928V301.928V296.928C466.464 296.928 463.753 297.552 461.119 298.669L463.072 303.272ZM469.216 301.928V306.928C473.644 306.928 475.18 308.219 475.85 309.359L480.16 306.824L484.47 304.289C481.3 298.901 475.54 296.928 469.216 296.928V301.928ZM480.16 306.824L475.873 309.396C476.739 310.841 477.255 313.747 475.729 319.206L480.544 320.552L485.359 321.898C487.161 315.453 487.421 309.207 484.447 304.252L480.16 306.824ZM480.544 320.552L475.726 319.214C475.017 321.767 474.582 324.2 474.56 326.431C474.539 328.646 474.923 330.993 476.185 333.053L480.448 330.44L484.711 327.827C484.757 327.903 484.549 327.61 484.56 326.529C484.57 325.464 484.791 323.945 485.362 321.89L480.544 320.552ZM480.448 330.44L476.224 333.115C478.737 337.084 483.081 338.32 487.264 338.32V333.32V328.32C486.049 328.32 485.356 328.14 485.01 327.994C484.728 327.875 484.688 327.79 484.672 327.765L480.448 330.44ZM487.264 333.32V338.32C491.803 338.32 495.842 336.637 499.199 333.538L495.808 329.864L492.417 326.19C490.782 327.699 489.125 328.32 487.264 328.32V333.32ZM495.808 329.864L499.249 333.491C502.592 330.32 505.284 325.248 507.598 319.033L502.912 317.288L498.226 315.543C496.06 321.36 494.016 324.672 492.367 326.237L495.808 329.864ZM502.912 317.288L507.527 319.211C507.457 319.38 507.322 319.613 507.096 319.84C506.869 320.066 506.636 320.201 506.467 320.271L504.544 315.656L502.621 311.041C500.636 311.868 499.124 313.38 498.297 315.365L502.912 317.288ZM504.544 315.656L506.78 320.128C506.607 320.215 506.304 320.323 505.904 320.34C505.5 320.357 505.159 320.273 504.925 320.175L506.848 315.56L508.771 310.945C506.613 310.046 504.328 310.174 502.308 311.184L504.544 315.656ZM506.848 315.56L505.267 320.303C505.021 320.222 504.704 320.058 504.405 319.777C504.109 319.498 503.944 319.211 503.865 319.019L508.48 317.096L513.095 315.173C512.237 313.113 510.612 311.544 508.429 310.817L506.848 315.56ZM508.48 317.096L504.008 319.332C503.906 319.129 503.81 318.83 503.796 318.472C503.782 318.118 503.853 317.848 503.909 317.701L508.576 319.496L513.243 321.291C514.045 319.204 513.991 316.938 512.952 314.86L508.48 317.096ZM508.576 319.496L503.898 317.731C501.472 324.159 498.827 328.419 496.181 330.965L499.648 334.568L503.115 338.171C507.253 334.189 510.56 328.401 513.254 321.261L508.576 319.496ZM499.648 334.568L496.217 330.931C493.796 333.215 490.913 334.368 487.264 334.368V339.368V344.368C493.343 344.368 498.716 342.321 503.079 338.205L499.648 334.568ZM487.264 339.368V334.368C484.434 334.368 482.464 333.779 481.072 332.914L478.432 337.16L475.792 341.406C479.136 343.485 483.054 344.368 487.264 344.368V339.368ZM478.432 337.16L481.206 333C480.056 332.233 479.171 331.074 478.669 329.107L473.824 330.344L468.979 331.581C470.013 335.63 472.2 339.015 475.659 341.32L478.432 337.16ZM473.824 330.344L478.692 329.205C478.257 327.342 478.338 324.461 479.506 320.258L474.688 318.92L469.87 317.582C468.478 322.595 467.983 327.33 468.956 331.483L473.824 330.344ZM474.688 318.92L479.499 320.283C480.643 316.243 481.232 311.895 479.635 308.331L475.072 310.376L470.509 312.421C470.504 312.409 470.647 312.741 470.605 313.68C470.564 314.599 470.355 315.873 469.877 317.557L474.688 318.92ZM475.072 310.376L479.635 308.331C477.584 303.757 472.934 302.592 469.024 302.592V307.592V312.592C470.197 312.592 470.716 312.771 470.845 312.83C470.888 312.85 470.828 312.829 470.731 312.733C470.629 312.633 470.552 312.517 470.509 312.421L475.072 310.376ZM469.024 307.592V302.592C464.161 302.592 459.586 304.274 455.38 307.257L458.272 311.336L461.164 315.415C463.997 313.406 466.591 312.592 469.024 312.592V307.592ZM458.272 311.336L455.38 307.257C450.935 310.409 447.391 315.211 444.543 321.184L449.056 323.336L453.569 325.488C455.969 320.453 458.569 317.255 461.164 315.415L458.272 311.336ZM449.056 323.336L444.508 321.26C443.162 324.206 441.849 327.088 440.568 329.907L445.12 331.976L449.672 334.045C450.951 331.232 452.262 328.354 453.604 325.412L449.056 323.336ZM445.12 331.976L440.53 329.994C439.314 332.809 438.291 335.175 437.46 337.092L442.048 339.08L446.636 341.068C447.469 339.145 448.494 336.775 449.71 333.958L445.12 331.976ZM442.048 339.08L437.433 337.157C437.529 336.927 437.696 336.662 437.943 336.429C438.184 336.201 438.409 336.09 438.525 336.045L440.32 340.712L442.115 345.379C444.121 344.607 445.777 343.13 446.663 341.003L442.048 339.08ZM440.32 340.712L438.739 335.969C438.9 335.915 439.122 335.874 439.376 335.884C439.629 335.895 439.823 335.952 439.939 336.001L438.016 340.616L436.093 345.231C437.941 346.002 439.954 346.105 441.901 345.455L440.32 340.712Z" fill="#46ECD5" mask="url(#path-3-outside-1_71_390)"/>
</g>
</svg>
